/* XPM */
static const char * icon_track_xpm[] = {
"32 32 364 2",
"  	c #FFFFFF",
". 	c #FEFEFE",
"+ 	c #FFFEFE",
"@ 	c #F5F6F5",
"# 	c #B6B7B6",
"$ 	c #C2C1C2",
"% 	c #E0E0E0",
"& 	c #F9F9F9",
"* 	c #9F9A9A",
"= 	c #7E7E80",
"- 	c #706D70",
"; 	c #727073",
"> 	c #706F72",
", 	c #717174",
"' 	c #6D6E72",
") 	c #6E6F74",
"! 	c #A89E98",
"~ 	c #EAE8E6",
"{ 	c #706960",
"] 	c #424140",
"^ 	c #615F5A",
"/ 	c #E1E0DD",
"( 	c #F5F5F5",
"_ 	c #CAC9C7",
": 	c #D7D6D6",
"< 	c #5B5450",
"[ 	c #494444",
"} 	c #403D3D",
"| 	c #959493",
"1 	c #565454",
"2 	c #414042",
"3 	c #353439",
"4 	c #474549",
"5 	c #BBB6B5",
"6 	c #FFFFFE",
"7 	c #E8E8E7",
"8 	c #7C7775",
"9 	c #403F40",
"0 	c #3F3E3E",
"a 	c #C3C2BF",
"b 	c #EEEDED",
"c 	c #5E5B57",
"d 	c #7E7875",
"e 	c #AAA7A4",
"f 	c #605F5F",
"g 	c #6F6E70",
"h 	c #F3F3F3",
"i 	c #747375",
"j 	c #636467",
"k 	c #454448",
"l 	c #9D9796",
"m 	c #949497",
"n 	c #DDDCDC",
"o 	c #4E4C4C",
"p 	c #474644",
"q 	c #FCFDFC",
"r 	c #EDE7E0",
"s 	c #7E7772",
"t 	c #646362",
"u 	c #A8A8A8",
"v 	c #FDFDFD",
"w 	c #FCFCFC",
"x 	c #79797C",
"y 	c #F9FAF9",
"z 	c #68676C",
"A 	c #FDFDFE",
"B 	c #DCDBDB",
"C 	c #91898E",
"D 	c #373738",
"E 	c #454443",
"F 	c #FDFDFC",
"G 	c #595655",
"H 	c #686769",
"I 	c #E9E9E8",
"J 	c #9F9FA2",
"K 	c #E5E5E6",
"L 	c #7F7F83",
"M 	c #EAEAEA",
"N 	c #DADADA",
"O 	c #525153",
"P 	c #464445",
"Q 	c #323030",
"R 	c #F3F3F1",
"S 	c #C9C8CA",
"T 	c #6A6868",
"U 	c #ACACAE",
"V 	c #CCCCCD",
"W 	c #BEBEC0",
"X 	c #A0A0A3",
"Y 	c #C9C9CA",
"Z 	c #D9D9D9",
"` 	c #6B6B6E",
" .	c #2B2B2E",
"..	c #333130",
"+.	c #8B8B8D",
"@.	c #8D8D8D",
"#.	c #F0F0EF",
"$.	c #EFEFEF",
"%.	c #D4D5D6",
"&.	c #A2A2A3",
"*.	c #B7B7B9",
"=.	c #B3B4B6",
"-.	c #D9D9DA",
";.	c #77777B",
">.	c #2A2B2F",
",.	c #383A3D",
"'.	c #767779",
").	c #8C8C8C",
"!.	c #ACACAD",
"~.	c #929292",
"{.	c #DFDFDF",
"].	c #838486",
"^.	c #A8A8A9",
"/.	c #8E8E8F",
"(.	c #CACACA",
"_.	c #9C9D9F",
":.	c #DAD9DA",
"<.	c #5F6065",
"[.	c #25262B",
"}.	c #353538",
"|.	c #DFDFE0",
"1.	c #5B5C61",
"2.	c #8A8A8B",
"3.	c #787A7A",
"4.	c #AEAEAE",
"5.	c #DEDEDE",
"6.	c #F4F4F4",
"7.	c #464548",
"8.	c #B4B4B4",
"9.	c #848487",
"0.	c #D7D7D7",
"a.	c #848588",
"b.	c #D7D7D8",
"c.	c #38393E",
"d.	c #25262A",
"e.	c #2E2F32",
"f.	c #ADAFB2",
"g.	c #474B50",
"h.	c #24272B",
"i.	c #88898D",
"j.	c #EDEDEC",
"k.	c #D0CFD0",
"l.	c #A3A3A4",
"m.	c #3D3C3E",
"n.	c #B2B2B0",
"o.	c #808182",
"p.	c #E8E8E8",
"q.	c #737277",
"r.	c #FEFEFD",
"s.	c #B0B0B2",
"t.	c #676767",
"u.	c #33343B",
"v.	c #1D1F23",
"w.	c #2F3031",
"x.	c #767A7F",
"y.	c #6C959E",
"z.	c #596366",
"A.	c #F1F1F0",
"B.	c #FEFFFE",
"C.	c #F7F6F5",
"D.	c #525150",
"E.	c #323336",
"F.	c #393A3D",
"G.	c #444448",
"H.	c #A09F9F",
"I.	c #999996",
"J.	c #989FA2",
"K.	c #50575C",
"L.	c #B9D3D5",
"M.	c #F2F7F5",
"N.	c #7D7D80",
"O.	c #2A2A2F",
"P.	c #3D4043",
"Q.	c #33363C",
"R.	c #232629",
"S.	c #3A434B",
"T.	c #3F5357",
"U.	c #E2E3E1",
"V.	c #FEFEFF",
"W.	c #B9B9B8",
"X.	c #646670",
"Y.	c #555863",
"Z.	c #4A4D56",
"`.	c #4B4C51",
" +	c #45464B",
".+	c #3B3940",
"++	c #343439",
"@+	c #323A3D",
"#+	c #65A09B",
"$+	c #D8E4E1",
"%+	c #24252A",
"&+	c #28292B",
"*+	c #232529",
"=+	c #313237",
"-+	c #373B45",
";+	c #585B5F",
">+	c #424443",
",+	c #ECECE9",
"'+	c #999999",
")+	c #515358",
"!+	c #616267",
"~+	c #707274",
"{+	c #68686B",
"]+	c #67676A",
"^+	c #323439",
"/+	c #313035",
"(+	c #373C3F",
"_+	c #689F99",
":+	c #DBE6E3",
"<+	c #7E7E81",
"[+	c #3B3C3F",
"}+	c #26292E",
"|+	c #14191D",
"1+	c #34373F",
"2+	c #3A3E49",
"3+	c #3B3D47",
"4+	c #737673",
"5+	c #C2BEAA",
"6+	c #DDD7C4",
"7+	c #9B988D",
"8+	c #414247",
"9+	c #45454B",
"0+	c #44464C",
"a+	c #43444A",
"b+	c #4A4B51",
"c+	c #44454B",
"d+	c #4B4C52",
"e+	c #66696D",
"f+	c #8AA4A5",
"g+	c #E5E9E9",
"h+	c #7F8083",
"i+	c #A5A5A7",
"j+	c #2A2B31",
"k+	c #2B3538",
"l+	c #2B393C",
"m+	c #344D52",
"n+	c #3A4A53",
"o+	c #364E53",
"p+	c #8BACB1",
"q+	c #669294",
"r+	c #578080",
"s+	c #598388",
"t+	c #5D8A8F",
"u+	c #8FA6AD",
"v+	c #B9BDCA",
"w+	c #B8BCC8",
"x+	c #8E939E",
"y+	c #8D939D",
"z+	c #AFB6BE",
"A+	c #9DA8AC",
"B+	c #E6EAE8",
"C+	c #838383",
"D+	c #3A3B3D",
"E+	c #222428",
"F+	c #222529",
"G+	c #2B4041",
"H+	c #3D6367",
"I+	c #508286",
"J+	c #4F8487",
"K+	c #50898B",
"L+	c #70A1A6",
"M+	c #A7B7C4",
"N+	c #B1BAC7",
"O+	c #89AAB1",
"P+	c #79A3A8",
"Q+	c #679799",
"R+	c #5D8D8E",
"S+	c #537D7E",
"T+	c #52807E",
"U+	c #B3C8C1",
"V+	c #868585",
"W+	c #565657",
"X+	c #212226",
"Y+	c #1A1B1D",
"Z+	c #222324",
"`+	c #1D1C1E",
" @	c #222327",
".@	c #325656",
"+@	c #3F6B6A",
"@@	c #426C6A",
"#@	c #7797A0",
"$@	c #A0ADBC",
"%@	c #8494A1",
"&@	c #55757C",
"*@	c #4B7078",
"=@	c #456466",
"-@	c #3F5C5F",
";@	c #2A2D31",
">@	c #252428",
",@	c #272F30",
"'@	c #A1B3AE",
")@	c #F8F8F8",
"!@	c #FAFAFA",
"~@	c #5C5D5E",
"{@	c #1A1A1D",
"]@	c #2A2C2E",
"^@	c #242425",
"/@	c #1A1B1E",
"(@	c #233F3E",
"_@	c #538C90",
":@	c #799EA5",
"<@	c #8CA2AC",
"[@	c #778F98",
"}@	c #374B4E",
"|@	c #4D646D",
"1@	c #405864",
"2@	c #4A5F61",
"3@	c #35383C",
"4@	c #2A2A2C",
"5@	c #323234",
"6@	c #B1B9B8",
"7@	c #F0F0F0",
"8@	c #C5C5C3",
"9@	c #B8B8B7",
"0@	c #AAA9A9",
"a@	c #9B9A9B",
"b@	c #959495",
"c@	c #949394",
"d@	c #939293",
"e@	c #919090",
"f@	c #555554",
"g@	c #5F5F60",
"h@	c #1D1E20",
"i@	c #22272C",
"j@	c #272B2F",
"k@	c #212326",
"l@	c #19191B",
"m@	c #A4ABAA",
"n@	c #81A1A2",
"o@	c #89ABAA",
"p@	c #8CAEAE",
"q@	c #90B0B1",
"r@	c #96B4B3",
"s@	c #99B7B4",
"t@	c #9CBAB8",
"u@	c #B2C8C5",
"v@	c #56575A",
"w@	c #27282C",
"x@	c #2D2E34",
"y@	c #25272B",
"z@	c #E1E1E1",
"A@	c #B7B6B5",
"B@	c #ABABAA",
"C@	c #9E9D9C",
"D@	c #929191",
"E@	c #888787",
"F@	c #828182",
"G@	c #818080",
"H@	c #838182",
"I@	c #848384",
"J@	c #868587",
"K@	c #767776",
"L@	c #9B9B9B",
"M@	c #1B1C1D",
"N@	c #16181B",
"O@	c #19191A",
"P@	c #828283",
"Q@	c #FDFEFE",
"R@	c #FDFEFD",
"S@	c #666668",
"T@	c #5C5E61",
"U@	c #E7E8E8",
"V@	c #C9C9C9",
"W@	c #E6E6E6",
"                                                                ",
"                                                                ",
"                                                                ",
"                                                                ",
"                                                                ",
"                                          . . . . . . + .       ",
"                        @ # $ % .     & * = - ; > , ' ) ! .     ",
"                        ~ { ] ^ / ( _ : < [ } | 1 2 3 4 5 6     ",
"                        7 8 9 0 a b c d e f g h i j k l m       ",
"                        n o o p q r s t u v 6     w x y z A     ",
"                        B C D E F y G H I .         J K L M     ",
"                        N O P Q R S T U v           V W X Y     ",
"                        Z `  ...v +.@.#..         $.%.&.*.=.    ",
"                        -.;.>.,.w '.).!.~.{.    . ].^./.(._..   ",
"                        :.<.[.}.|.1.2.3.4.5.    6.7.8.9.0.a..   ",
"                        b.c.d.e.f.g.h.i.v . j.k.l.m.n.o.p.q.r.  ",
"                    6 s.t.u.v.w.x.y.z.A.B.C.D.E.F.G.H.I.J.K.L.M.",
"                    6 N.O.P.Q.R.S.T.U.V.  W.X.Y.Z.`. +.+++@+#+$+",
"                    . N.%+&+*+=+-+;+>+,+r.'+)+!+~+{+]+^+/+(+_+:+",
"                      <+[+}+|+1+2+3+4+5+6+7+8+9+0+a+b+c+d+e+f+g+",
"                      h+i+j+k+l+m+n+o+p+q+r+s+t+u+v+w+x+y+z+A+B+",
"                      C+D+d.E+v.F+G+H+I+J+K+L+M+N+O+P+Q+R+S+T+U+",
"                      V+W+X+Y+Z+`+ @.@+@@@#@$@%@&@*@=@-@;@>@,@'@",
"    . & )@)@& )@)@& !@o.~@{@]@*+^@/@(@_@:@<@[@}@|@1@2@3@4@5@ @6@",
". . 7@8@9@0@a@b@c@d@e@f@g@h@i@j@k@l@m@n@o@p@q@r@s@t@u@v@w@x@y@% ",
"z@A@B@C@D@E@F@G@H@I@J@K@7 L@M@N@O@P@Q@R@            . 5.S@T@4.. ",
"                    . 6   . U@V@W@.                     . .     ",
"                                                                ",
"                                                                ",
"                                                                ",
"                                                                ",
"                                                                "};
